DataType=double
version=3
OpenSimVersion=4.3-2021-08-27-4bc7ad9
endheader
time	ground_force_r_vx	ground_force_r_vy	ground_force_r_vz	ground_force_r_px	ground_force_r_py	ground_force_r_pz	ground_force_l_vx	ground_force_l_vy	ground_force_l_vz	ground_force_l_px	ground_force_l_py	ground_force_l_pz
0.352	-867.1357538278251	6163.428734203098	-186.6972747428434	0	0	0	0	0	0	0	0	0
0.35291149	-3559.912119948232	14963.65106230322	-939.2973320414812	0	0	0	0	0	0	0	0	0
0.35382297	-5783.109908621193	23755.66768483853	-1391.965241312229	0	0	0	0	0	0	0	0	0
0.35473446	-7234.063267750269	32391.5961684666	-1351.21312617012	0	0	0	0	0	0	0	0	0
0.35564594	-7838.466023154842	40521.37229499195	-791.1742783830085	0	0	0	0	0	0	0	0	0
0.35655743	-7734.003498779984	47668.31428151707	146.918290312672	0	0	0	0	0	0	0	0	0
0.35746891	-7172.960871033488	53387.81794005036	1215.012709952461	0	0	0	0	0	0	0	0	0
0.3583804	-6395.552814983829	57427.43335807502	2150.299736549059	0	0	0	0	0	0	0	0	0
0.35929188	-5533.500781702446	59813.67579566192	2761.148783762057	0	0	0	0	0	0	0	0	0
0.36020337	-4580.844982510941	60830.31730261006	2976.389487376217	0	0	0	0	0	0	0	0	0
0.36111485	-3433.155260184471	60900.98166624709	2846.159446951275	0	0	0	0	0	0	0	0	0
0.36202634	-1967.615991450176	60425.07785499407	2502.677917841816	0	0	0	0	0	0	0	0	0
0.36293782	-126.0888725529487	59628.90654338915	2102.299730039327	0	0	0	0	0	0	0	0	0
0.36384931	2029.925409940637	58483.21011476152	1772.222999594662	0	0	0	0	0	0	0	0	0
0.36476079	4308.034510756289	56713.39608356333	1578.0546480929	0	0	0	0	0	0	0	0	0
0.36567228	6417.713864861659	53899.90553759653	1517.553365510755	0	0	0	0	0	0	0	0	0
0.36658376	8036.560749878669	49640.89809950586	1536.564866173415	0	0	0	0	0	0	0	0	0
0.36749525	8892.70543279395	43730.83484696719	1557.85526499041	0	0	0	0	0	0	0	0	0
0.36840673	8841.562220909471	36298.81625627933	1512.002578881528	0	0	0	0	0	0	0	0	0
0.36931822	7913.654457564335	27853.54109873838	1360.711462861416	0	0	0	0	0	0	0	0	0
0.3702297	6314.993656607707	19203.80774417514	1106.283589368005	0	0	0	0	0	0	0	0	0
0.37114119	4375.115525466942	11267.11991223819	785.9472900380617	0	0	0	0	0	0	0	0	0
0.37205267	2457.979089336099	4830.111149468728	455.0290103383461	0	0	0	0	0	0	0	0	0
0.37296416	867.6063195190154	351.8708818466391	166.6787623918959	0	0	0	0	0	0	0	0	0
0.37387564	0	0	0	0	0	0	0	0	0	0	0	0
0.37478713	0	0	0	0	0	0	0	0	0	0	0	0
0.37569861	0	0	0	0	0	0	0	0	0	0	0	0
0.3766101	0	0	0	0	0	0	0	0	0	0	0	0
0.37752158	0	0	0	0	0	0	0	0	0	0	0	0
0.37843307	0	0	0	0	0	0	0	0	0	0	0	0
0.37934456	0	0	0	0	0	0	0	0	0	0	0	0
0.38025604	0	0	0	0	0	0	0	0	0	0	0	0
0.38116753	0	0	0	0	0	0	0	0	0	0	0	0
0.38207901	0	0	0	0	0	0	0	0	0	0	0	0
0.3829905	0	0	0	0	0	0	0	0	0	0	0	0
0.38390198	0	0	0	0	0	0	0	0	0	0	0	0
0.38481347	0	0	0	0	0	0	0	0	0	0	0	0
0.38572495	0	0	0	0	0	0	0	0	0	0	0	0
0.38663644	0	0	0	0	0	0	0	0	0	0	0	0
0.38754792	0	0	0	0	0	0	0	0	0	0	0	0
0.38845941	0	0	0	0	0	0	0	0	0	0	0	0
0.38937089	0	0	0	0	0	0	0	0	0	0	0	0
0.39028238	0	0	0	0	0	0	0	0	0	0	0	0
0.39119386	0	0	0	0	0	0	0	0	0	0	0	0
0.39210535	0	0	0	0	0	0	0	0	0	0	0	0
0.39301683	0	0	0	0	0	0	0	0	0	0	0	0
0.39392832	0	0	0	0	0	0	0	0	0	0	0	0
0.3948398	0	0	0	0	0	0	0	0	0	0	0	0
0.39575129	0	0	0	0	0	0	0	0	0	0	0	0
0.39666277	0	0	0	0	0	0	0	0	0	0	0	0
0.39757426	0	0	0	0	0	0	0	0	0	0	0	0
